<?xml version="1.0" encoding="utf-8"?>
<!-- Generator: Adobe Illustrator 19.1.0, SVG Export Plug-In . SVG Version: 6.00 Build 0)  -->
<svg version="1.1" baseProfile="tiny" id="Layer_1" xmlns="http://www.w3.org/2000/svg" xmlns:xlink="http://www.w3.org/1999/xlink"
	 x="0px" y="0px" viewBox="-240 332 130 130" xml:space="preserve">
<g id="Layer_1_1_">
	<path fill="#000000" d="M-175,340.9c-31,0-56.1,25.1-56.1,56.1c0,31,25.1,56.1,56.1,56.1s56.1-25.1,56.1-56.1
		C-118.9,366-144,340.9-175,340.9z M-177.7,416.3c0,1.3-1,2.3-2.3,2.3h-14.3c-1.3,0-2.3-1-2.3-2.3v-38.6c0-1.3,1-2.3,2.3-2.3h14.3
		c1.3,0,2.3,1,2.3,2.3C-177.7,377.7-177.7,416.3-177.7,416.3z M-153.4,416.3c0,1.3-1,2.3-2.3,2.3H-170c-1.3,0-2.3-1-2.3-2.3v-38.6
		c0-1.3,1-2.3,2.3-2.3h14.3c1.3,0,2.3,1,2.3,2.3C-153.4,377.7-153.4,416.3-153.4,416.3z"/>
</g>
<g id="Layer_2">
	<g>
		<path fill="#FFFFFF" d="M-180,375.4h-14.3c-1.3,0-2.3,1-2.3,2.3v38.6c0,1.3,1,2.3,2.3,2.3h14.3c1.3,0,2.3-1,2.3-2.3v-38.6
			C-177.7,376.4-178.7,375.4-180,375.4z"/>
		<path fill="#FFFFFF" d="M-155.7,375.4H-170c-1.3,0-2.3,1-2.3,2.3v38.6c0,1.3,1,2.3,2.3,2.3h14.3c1.3,0,2.3-1,2.3-2.3v-38.6
			C-153.4,376.4-154.4,375.4-155.7,375.4z"/>
	</g>
</g>
</svg>
