<?xml version="1.0" encoding="utf-8"?>
<!-- Generator: Adobe Illustrator 19.1.0, SVG Export Plug-In . SVG Version: 6.00 Build 0)  -->
<svg version="1.1" baseProfile="tiny" id="Layer_1" xmlns="http://www.w3.org/2000/svg" xmlns:xlink="http://www.w3.org/1999/xlink"
	 x="0px" y="0px" viewBox="-240 332 130 130" xml:space="preserve">
<g id="Layer_1_1_">
	<path fill="#000000" d="M-175,334.6c-34.4,0-62.4,27.9-62.4,62.4c0,34.4,27.9,62.4,62.4,62.4s62.4-27.9,62.4-62.4
		C-112.6,362.6-140.6,334.6-175,334.6z M-147.8,398.8l-42.4,29.6c-1.4,1-2.6,0.4-2.6-1.3V367c0-1.7,1.2-2.3,2.6-1.3l42.4,29.6
		C-146.4,396.2-146.4,397.8-147.8,398.8z"/>
</g>
<g id="Layer_2">
	<path fill="#FFFFFF" d="M-192.8,367c0-1.7,1.2-2.3,2.6-1.3l42.4,29.6c1.4,1,1.4,2.6,0,3.6l-42.4,29.6c-1.4,1-2.6,0.4-2.6-1.3V367z"
		/>
</g>
</svg>
