<?xml version="1.0" encoding="utf-8"?>
<!-- Generator: Adobe Illustrator 19.1.0, SVG Export Plug-In . SVG Version: 6.00 Build 0)  -->
<svg version="1.1" baseProfile="tiny" id="Layer_1" xmlns="http://www.w3.org/2000/svg" xmlns:xlink="http://www.w3.org/1999/xlink"
	 x="0px" y="0px" viewBox="-240 332 130 130" xml:space="preserve">
<g id="Layer_1_1_">
	<g>
		<path fill="#000000" d="M-175,334.6c-34.4,0-62.4,27.9-62.4,62.4c0,34.4,27.9,62.4,62.4,62.4s62.4-27.9,62.4-62.4
			C-112.6,362.6-140.6,334.6-175,334.6z M-135.4,424.4c0,1.4-1.1,2.6-2.6,2.6H-212c-1.4,0-2.6-1.1-2.6-2.6v-54.9
			c0-1.4,1.1-2.6,2.6-2.6h74.1c1.4,0,2.6,1.1,2.6,2.6V424.4z"/>
		<path fill="#000000" d="M-178.8,405.9l12-8.4c0.8-0.5,0.8-1.4,0-1.9l-12-8.4c-0.8-0.5-1.4-0.2-1.4,0.7v17.3
			C-180.2,406.1-179.6,406.4-178.8,405.9z"/>
		<path fill="#000000" d="M-210,417.1h69.3v-40.2H-210V417.1z M-175,380.5c8.9,0,16,7.2,16,16c0,8.9-7.2,16-16,16
			c-8.9,0-16-7.2-16-16C-191,387.7-183.9,380.5-175,380.5z"/>
	</g>
</g>
<g id="Layer_2">
	<g>
		<path fill="#FFFFFF" d="M-138,367H-212c-1.4,0-2.6,1.1-2.6,2.6v54.9c0,1.4,1.1,2.6,2.6,2.6h74.1c1.4,0,2.6-1.1,2.6-2.6v-54.9
			C-135.4,368.1-136.6,367-138,367z M-140.7,417.1H-210v-40.2h69.3C-140.7,376.9-140.7,417.1-140.7,417.1z"/>
		<path fill="#FFFFFF" d="M-175,412.6c8.9,0,16-7.2,16-16c0-8.9-7.2-16-16-16c-8.9,0-16,7.2-16,16C-191,405.4-183.9,412.6-175,412.6
			z M-180.2,387.9c0-0.9,0.6-1.3,1.4-0.7l12,8.4c0.8,0.5,0.8,1.4,0,1.9l-12,8.4c-0.8,0.5-1.4,0.2-1.4-0.7V387.9z"/>
	</g>
</g>
</svg>
