<?xml version="1.0" encoding="utf-8"?>
<!-- Generator: Adobe Illustrator 19.1.0, SVG Export Plug-In . SVG Version: 6.00 Build 0)  -->
<svg version="1.1" baseProfile="tiny" id="Layer_1" xmlns="http://www.w3.org/2000/svg" xmlns:xlink="http://www.w3.org/1999/xlink"
	 x="0px" y="0px" viewBox="-240 332 130 130" xml:space="preserve">
<g id="Layer_1_1_">
	<path fill="#000000" d="M-175,340.9c-31,0-56.1,25.1-56.1,56.1c0,31,25.1,56.1,56.1,56.1s56.1-25.1,56.1-56.1
		C-118.9,366-144,340.9-175,340.9z M-150.5,398.6l-38.1,26.6c-1.3,0.9-2.3,0.3-2.3-1.2V370c0-1.5,1-2.1,2.3-1.2l38.2,26.6
		C-149.3,396.3-149.3,397.7-150.5,398.6z"/>
</g>
<g id="Layer_2">
	<path fill="#FFFFFF" d="M-191,370c0-1.5,1-2.1,2.3-1.2l38.2,26.6c1.3,0.9,1.3,2.3,0,3.2l-38.2,26.6c-1.3,0.9-2.3,0.3-2.3-1.2V370z"
		/>
</g>
</svg>
