<?xml version="1.0" encoding="utf-8"?>
<!-- Generator: Adobe Illustrator 19.1.0, SVG Export Plug-In . SVG Version: 6.00 Build 0)  -->
<svg version="1.1" baseProfile="tiny" id="Layer_1" xmlns="http://www.w3.org/2000/svg" xmlns:xlink="http://www.w3.org/1999/xlink"
	 x="0px" y="0px" viewBox="-240 332 130 130" xml:space="preserve">
<g id="Layer_1_1_">
	<path fill="#000000" d="M-175,334.6c-34.4,0-62.4,27.9-62.4,62.4c0,34.4,27.9,62.4,62.4,62.4s62.4-27.9,62.4-62.4
		C-112.6,362.6-140.6,334.6-175,334.6z M-178,418.4c0,1.4-1.1,2.6-2.6,2.6h-15.9c-1.4,0-2.6-1.1-2.6-2.6v-42.9
		c0-1.4,1.1-2.6,2.6-2.6h15.9c1.4,0,2.6,1.1,2.6,2.6C-178,375.5-178,418.4-178,418.4z M-151,418.4c0,1.4-1.1,2.6-2.6,2.6h-15.9
		c-1.4,0-2.6-1.1-2.6-2.6v-42.9c0-1.4,1.1-2.6,2.6-2.6h15.9c1.4,0,2.6,1.1,2.6,2.6C-151,375.5-151,418.4-151,418.4z"/>
</g>
<g id="Layer_2">
	<g>
		<path fill="#FFFFFF" d="M-180.5,373h-15.9c-1.4,0-2.6,1.1-2.6,2.6v42.9c0,1.4,1.1,2.6,2.6,2.6h15.9c1.4,0,2.6-1.1,2.6-2.6v-42.9
			C-178,374.1-179.1,373-180.5,373z"/>
		<path fill="#FFFFFF" d="M-153.5,373h-15.9c-1.4,0-2.6,1.1-2.6,2.6v42.9c0,1.4,1.1,2.6,2.6,2.6h15.9c1.4,0,2.6-1.1,2.6-2.6v-42.9
			C-151,374.1-152.1,373-153.5,373z"/>
	</g>
</g>
</svg>
